<svg width="741" height="264" viewBox="0 0 741 264" fill="none" xmlns="http://www.w3.org/2000/svg">
<path d="M385.679 237.429L399.751 208.859H410.518L389.126 246.952C385.004 254.296 382.007 258.844 380.136 260.598C378.288 262.374 375.125 263.263 370.647 263.263C369.748 263.263 369.025 263.251 368.48 263.228C367.936 263.228 367.13 263.192 366.063 263.121L367.77 255.019L369.049 255.09C370.02 255.137 370.968 255.102 371.892 254.983C372.815 254.865 373.633 254.592 374.344 254.166C375.031 253.763 375.765 252.922 376.547 251.643C377.328 250.364 377.696 249.582 377.648 249.298L372.033 208.859H383.298L385.679 237.429ZM204.736 193.863C211.393 193.863 216.38 195.558 219.696 198.945C223.013 202.309 224.435 206.514 223.961 211.56H213.193C213.122 207.983 211.63 205.484 208.716 204.062C207.081 203.281 205.163 202.89 202.96 202.89C198.743 202.89 194.94 204.488 191.553 207.687C188.165 210.861 185.784 215.647 184.41 222.043C183.06 228.486 183.558 233.047 185.903 235.724C188.272 238.4 191.328 239.739 195.071 239.739C198.743 239.739 201.976 238.684 204.771 236.576C207.591 234.444 209.628 231.661 210.884 228.226H198.767L200.65 219.484H222.468L216.498 247.592H209.249L209.533 241.054C206.88 243.541 204.606 245.294 202.711 246.312C199.442 248.089 195.699 248.977 191.482 248.978C184.541 248.978 179.364 246.574 175.953 241.765C172.376 236.932 171.476 230.323 173.253 221.937C175.053 213.456 178.831 206.656 184.588 201.539C190.344 196.422 197.061 193.863 204.736 193.863ZM272.323 207.615C278.98 207.615 283.505 209.665 285.897 213.763C288.29 217.861 288.894 222.706 287.71 228.297C286.502 233.982 283.824 238.85 279.679 242.901C275.557 246.929 270.168 248.942 263.511 248.942C256.854 248.942 252.318 246.929 249.901 242.901C247.509 238.85 246.916 233.982 248.124 228.297C249.309 222.706 251.973 217.861 256.119 213.763C260.265 209.664 265.666 207.615 272.323 207.615ZM434.219 207.615C440.875 207.615 445.4 209.665 447.793 213.763C450.186 217.861 450.79 222.706 449.605 228.297C448.397 233.982 445.721 238.85 441.575 242.901C437.453 246.929 432.063 248.942 425.406 248.942C418.75 248.942 414.213 246.929 411.797 242.901C409.404 238.85 408.812 233.982 410.021 228.297C411.205 222.706 413.87 217.861 418.016 213.763C422.161 209.665 427.562 207.615 434.219 207.615ZM714.979 207.758C719.811 207.758 723.542 208.729 726.172 210.672C728.801 212.591 729.844 215.919 729.299 220.657H719.172C719.29 219.354 719.136 218.323 718.71 217.565C717.881 216.191 716.127 215.504 713.45 215.504C711.247 215.504 709.6 215.848 708.511 216.535C707.445 217.222 706.817 218.027 706.628 218.951C706.367 220.112 706.687 220.952 707.587 221.474C708.463 222.018 711.781 222.955 717.537 224.281C721.351 225.229 724.064 226.662 725.675 228.581C727.262 230.524 727.747 232.952 727.131 235.865C726.302 239.703 724.206 242.842 720.842 245.282C717.478 247.699 712.811 248.907 706.841 248.907C700.753 248.907 696.524 247.628 694.155 245.069C691.81 242.487 691.052 239.205 691.881 235.226H702.15C701.985 237.026 702.186 238.305 702.755 239.063C703.702 240.414 705.87 241.089 709.258 241.089C711.247 241.089 712.893 240.793 714.196 240.201C715.499 239.609 716.281 238.72 716.542 237.536C716.779 236.399 716.482 235.534 715.653 234.941C714.824 234.349 711.519 233.331 705.739 231.886C701.594 230.796 698.799 229.433 697.354 227.799C695.885 226.188 695.482 223.867 696.146 220.835C696.904 217.258 698.953 214.189 702.293 211.631C705.657 209.049 709.885 207.758 714.979 207.758ZM634.351 207.829C637.572 207.829 640.344 208.433 642.665 209.641C645.01 210.849 646.74 212.756 647.854 215.362C648.896 217.66 649.311 220.325 649.098 223.357C649.003 225.134 648.576 227.693 647.818 231.033H621.31C620.623 234.918 621.261 237.643 623.228 239.206C624.412 240.177 625.988 240.663 627.954 240.663C630.039 240.663 631.863 240.07 633.427 238.886C634.256 238.246 635.073 237.358 635.878 236.221H646.219C645.461 238.519 643.767 240.853 641.138 243.222C637.016 246.988 631.97 248.871 626 248.871C621.073 248.871 617.056 247.284 613.953 244.109C610.874 240.935 610.092 235.77 611.608 228.616C613.03 221.912 615.813 216.771 619.959 213.194C624.128 209.617 628.926 207.829 634.351 207.829ZM601.41 247.592H591.566L592.704 242.227C590.762 244.524 588.748 246.194 586.663 247.236C584.602 248.279 582.197 248.8 579.449 248.8C574.925 248.8 571.501 246.976 569.18 243.328C566.882 239.656 566.337 234.954 567.545 229.221C568.966 222.611 571.596 217.411 575.434 213.621C579.295 209.831 583.773 207.936 588.866 207.936C591.211 207.936 593.189 208.445 594.8 209.464C596.387 210.506 597.56 211.939 598.318 213.763L602.227 195.285H612.496L601.41 247.592ZM674.824 207.936C679.065 207.936 682.654 208.776 685.592 210.458C688.529 212.14 689.5 215.315 688.505 219.981L684.703 237.749C684.443 238.981 684.159 240.474 683.851 242.227C683.637 243.553 683.637 244.453 683.851 244.927C684.087 245.401 684.502 245.792 685.094 246.1L684.81 247.592H673.794C673.652 246.81 673.593 246.076 673.616 245.389C673.64 244.702 673.711 243.92 673.829 243.044C672.1 244.56 670.217 245.851 668.18 246.917C665.716 248.173 663.109 248.8 660.361 248.8C656.855 248.8 654.166 247.805 652.295 245.815C650.447 243.802 649.915 240.959 650.696 237.287C651.715 232.525 654.285 229.078 658.407 226.946C660.658 225.785 663.797 224.956 667.824 224.459L671.342 224.032C673.284 223.795 674.694 223.5 675.57 223.145C677.134 222.529 678.057 221.569 678.342 220.266C678.673 218.679 678.354 217.589 677.383 216.997C676.412 216.381 674.86 216.073 672.728 216.073C670.335 216.073 668.511 216.665 667.256 217.85C666.379 218.726 665.656 219.911 665.088 221.403H655.315C656.263 218.016 657.803 215.232 659.936 213.053C663.347 209.641 668.31 207.936 674.824 207.936ZM466.165 232.206C465.691 234.409 465.597 236.067 465.881 237.181C466.378 239.147 467.977 240.13 470.678 240.13C474.136 240.13 476.801 238.732 478.673 235.937C479.668 234.42 480.426 232.419 480.947 229.932L485.425 208.859H495.694L487.485 247.592H477.643L478.779 242.12C478.661 242.239 478.352 242.594 477.855 243.186C477.358 243.778 476.801 244.299 476.186 244.749C474.29 246.17 472.538 247.142 470.927 247.663C469.34 248.184 467.55 248.445 465.561 248.445C459.828 248.445 456.404 246.384 455.291 242.262C454.675 239.988 454.842 236.636 455.789 232.206L460.729 208.859H471.104L466.165 232.206ZM236.504 247.592H226.377L237.499 195.214H247.627L236.504 247.592ZM305.903 236.647L317.381 208.859H327.65L327.615 236.754L339.591 208.859H350.145L330.707 247.592H320.295L320.188 219.378L308.071 247.592H297.553L294.888 208.859H305.762L305.903 236.647ZM527.249 207.936C527.368 207.959 527.64 207.983 528.066 208.007L525.863 218.383C525.247 218.312 524.691 218.264 524.193 218.24C523.696 218.217 523.292 218.205 522.984 218.205C518.91 218.205 515.89 219.532 513.924 222.185C512.834 223.677 511.957 225.975 511.294 229.078L507.385 247.592H497.187L505.396 208.859H515.061L513.639 215.611C515.747 213.029 517.477 211.264 518.827 210.316C521.078 208.729 523.719 207.936 526.751 207.936H527.249ZM556.316 247.592H546.047L554.255 208.859H564.524L556.316 247.592ZM676.494 228.759C675.784 229.161 675.073 229.493 674.362 229.754C673.652 229.991 672.704 230.216 671.52 230.429L669.174 230.855C666.947 231.234 665.313 231.696 664.271 232.241C662.518 233.165 661.44 234.598 661.037 236.541C660.658 238.27 660.859 239.526 661.641 240.308C662.446 241.066 663.536 241.444 664.91 241.444C667.09 241.444 669.233 240.805 671.342 239.525C673.45 238.246 674.907 235.913 675.713 232.525L676.494 228.759ZM270.44 216.18C267.479 216.18 264.98 217.234 262.942 219.342C260.905 221.426 259.472 224.412 258.643 228.297C257.813 232.182 257.967 235.179 259.104 237.287C260.265 239.395 262.326 240.449 265.287 240.449C268.248 240.449 270.748 239.395 272.785 237.287C274.822 235.179 276.256 232.182 277.085 228.297C277.914 224.412 277.749 221.426 276.588 219.342C275.451 217.234 273.401 216.18 270.44 216.18ZM432.336 216.18C429.375 216.18 426.875 217.233 424.838 219.342C422.801 221.426 421.367 224.412 420.538 228.297C419.709 232.182 419.863 235.179 421 237.287C422.161 239.395 424.222 240.449 427.184 240.449C430.145 240.449 432.643 239.395 434.681 237.287C436.718 235.179 438.151 232.182 438.98 228.297C439.81 224.412 439.644 221.426 438.483 219.342C437.346 217.234 435.297 216.18 432.336 216.18ZM589.257 216.783C586.296 216.783 583.879 217.909 582.008 220.159C580.16 222.386 578.881 225.158 578.17 228.475C577.412 232.052 577.507 234.918 578.454 237.074C579.402 239.206 581.309 240.271 584.176 240.271C587.042 240.271 589.446 239.206 591.389 237.074C593.355 234.942 594.694 232.182 595.404 228.794C596.399 224.056 595.926 220.668 593.983 218.631C592.775 217.399 591.199 216.783 589.257 216.783ZM56.7754 54.9443C90.8868 54.9443 113.552 76.0061 113.552 106.226C113.552 135.529 96.1531 148.807 84.0195 148.808V150.868C96.8399 150.868 114.696 158.653 114.696 182.69C114.696 213.138 93.1765 231.224 57.9209 231.225C21.5203 231.225 1.14465 211.765 1.14453 177.425H22.8936C22.8937 199.402 35.0275 210.849 57.9209 210.849C80.5851 210.848 92.9472 200.776 92.9473 181.774C92.9473 160.254 70.0536 160.254 56.7754 160.254C22.6644 160.254 0.000188669 139.192 0 107.6C0 76.0066 22.6642 54.9445 56.7754 54.9443ZM632.573 216.18C630.228 216.18 628.25 216.914 626.64 218.383C625.052 219.852 623.832 221.841 622.979 224.353H638.721C639.123 221.676 638.733 219.65 637.549 218.276C636.388 216.879 634.729 216.18 632.573 216.18ZM565.52 204.24H555.25L557.24 194.895H567.51L565.52 204.24ZM693.155 54.7148C710.096 54.7148 723.603 56.5464 735.966 61.125V81.501C727.953 78.5248 711.012 73.4883 690.866 73.4883C672.094 73.4883 662.936 78.0664 662.936 86.7656C662.936 109.888 740.773 97.0682 740.773 138.276C740.773 160.712 723.146 174.22 688.806 174.22C671.864 174.22 658.357 172.388 645.994 167.81V147.434C654.007 150.41 671.177 155.446 691.095 155.446C709.867 155.446 718.796 148.578 718.796 139.879C718.795 116.986 641.187 129.576 641.187 88.3682C641.187 65.7039 659.044 54.7148 693.155 54.7148ZM240.854 54.9443C277.026 54.9445 301.064 78.7533 301.064 114.467C301.064 150.181 277.026 173.99 240.854 173.99C204.683 173.99 180.645 150.181 180.645 114.467C180.645 78.7531 204.683 54.9443 240.854 54.9443ZM439.454 114.467C439.454 150.181 415.416 173.99 379.244 173.99C342.843 173.99 319.034 150.181 319.034 112.864C319.034 78.0663 341.698 54.9443 374.665 54.9443C401.679 54.9443 415.416 68.2221 415.416 77.6084V79.6689H417.705V0H439.454V114.467ZM563.912 54.9443C600.084 54.9443 624.122 78.7531 624.122 114.467V171.701H602.373V149.036L600.084 149.266V151.326C600.084 160.484 586.348 173.99 559.334 173.99C526.367 173.99 503.702 150.868 503.702 115.841C503.702 78.7534 527.512 54.9444 563.912 54.9443ZM161.703 171.701H139.954V0H161.703V171.701ZM482.579 171.701H460.831V57.2334H482.579V171.701ZM240.854 75.3193C217.732 75.3193 202.393 91.1156 202.393 114.467C202.393 137.818 217.732 153.615 240.854 153.615C263.977 153.615 279.315 137.818 279.315 114.467C279.315 91.1158 263.977 75.3195 240.854 75.3193ZM378.557 75.3193C354.977 75.3195 340.782 90.2 340.782 114.467C340.782 137.818 356.122 153.615 379.244 153.615C402.824 153.615 417.476 138.505 417.476 114.467C417.475 91.1156 406.944 75.3193 378.557 75.3193ZM563.912 75.3193C540.79 75.3194 525.451 91.1157 525.451 114.467C525.451 138.505 539.645 153.615 563.226 153.615C591.614 153.615 602.145 137.589 602.145 114.467C602.144 90.4289 587.492 75.3193 563.912 75.3193ZM56.7754 75.3193C35.2557 75.3195 21.749 87.6823 21.749 107.6C21.7492 127.288 35.2558 139.879 56.7754 139.879C79.2109 139.879 91.8026 130.951 91.8027 107.6C91.8027 87.4533 78.2953 75.3193 56.7754 75.3193ZM106.226 32.2793C115.154 32.2793 121.106 37.7744 121.106 45.7871C121.106 54.0285 115.154 59.2939 106.226 59.2939C97.2974 59.2939 91.5744 54.0285 91.5742 45.7871C91.5742 37.7744 97.2972 32.2794 106.226 32.2793ZM300.59 13.8906C312.508 14.1928 322.077 23.9494 322.077 35.9404L322.069 36.5098C321.767 48.428 312.011 57.9969 300.021 57.9971L299.451 57.9893C287.722 57.6921 278.268 48.2389 277.971 36.5098L277.964 35.9404C277.964 23.759 287.839 13.8838 300.021 13.8838L300.59 13.8906ZM300.021 23.3369C293.06 23.3369 287.417 28.9796 287.417 35.9404C287.417 42.9012 293.06 48.5439 300.021 48.5439C306.981 48.5438 312.624 42.9011 312.624 35.9404C312.624 28.9797 306.981 23.3371 300.021 23.3369ZM252.756 13.8838C259.717 13.8838 265.36 19.5266 265.36 26.4873C265.36 33.4482 259.717 39.0918 252.756 39.0918C245.795 39.0915 240.152 33.448 240.152 26.4873C240.153 19.5268 245.795 13.884 252.756 13.8838ZM471.591 9.15723C479.603 9.15733 484.869 14.1935 484.869 21.748C484.869 29.3028 479.603 34.3397 471.591 34.3398C463.807 34.3398 458.541 29.3029 458.541 21.748C458.541 14.1934 463.807 9.15723 471.591 9.15723Z" fill="#587C90"/>
</svg>
